PathFileType	4	(X/Y/Z)	./resultDataOpenSim/trcMotMarkerGrf/sub09/qtm-14-07.trc
DataRate	CameraRate	NumFrames	NumMarkers	Units	OrigDataRate	OrigDataStartFrame	OrigNumFrames
250.000000	250.000000	8	24	m	250.000000	182	485
Frame#	Time	L.Toe.Tip			R.Toe.Tip			L.Ankle.Lat			R.Ankle.Lat			L.Ankle.Med			R.Ankle.Med			L.Heel			R.Heel			L.Knee.Lat			R.Knee.Lat			L.Knee.Med			R.Knee.Med			L.Thigh.Upper			R.Thigh.Upper			L.ASIS			R.ASIS			V.Sacral			L.Acromium			R.Acromium			C7			L.Elbow			R.Elbow			L.Wrist.Lat			R.Wrist.Lat
		X1	Y1	Z1	X2	Y2	Z2	X3	Y3	Z3	X4	Y4	Z4	X5	Y5	Z5	X6	Y6	Z6	X7	Y7	Z7	X8	Y8	Z8	X9	Y9	Z9	X10	Y10	Z10	X11	Y11	Z11	X12	Y12	Z12	X13	Y13	Z13	X14	Y14	Z14	X15	Y15	Z15	X16	Y16	Z16	X17	Y17	Z17	X18	Y18	Z18	X19	Y19	Z19	X20	Y20	Z20	X21	Y21	Z21	X22	Y22	Z22	X23	Y23	Z23	X24	Y24	Z24

182	0.724	0.2242696	-0.033161761	0.025550934	-0.54514181	0.073714157	0.11106702	0.081950367	-0.0012035335	-0.036970671	-0.57819619	0.22516908	0.1360226	0.087793452	0.018535064	0.060704882	-0.52155689	0.21517761	0.05511838	0.0062922393	-0.038039559	-0.0040739727	-0.61049569	0.26992524	0.071077553	0.12320763	0.41504841	-0.084135049	-0.17397019	0.39835932	0.23503778	0.10562027	0.41876666	0.040004192	-0.15116677	0.36513176	0.10987873	-0.0593207	0.79427297	-0.1415346	-0.13376282	0.78837019	0.22895429	0.0032045789	0.87878536	-0.064764683	-0.017825518	0.86932599	0.17397179	-0.17493901	0.92717313	0.032149627	-0.039526389	1.3190334	-0.13962241	-0.090752839	1.348045	0.19029371	-0.13351991	1.3781772	0.015618003	-0.20086958	0.99334841	-0.18601797	-0.20479583	1.0067593	0.29422181	-0.12890143	0.74898641	-0.24349038	-0.045156033	0.78428729	0.31021791
183	0.728	0.22417081	-0.033304382	0.025746784	-0.53506773	0.07735653	0.11304157	0.082075727	-0.0015944347	-0.037075473	-0.56577309	0.22962676	0.13573535	0.087717133	0.018329292	0.060708044	-0.50930389	0.2187642	0.055231162	0.0062009799	-0.038051413	-0.0044010594	-0.5970775	0.27499154	0.071243601	0.12810811	0.41333131	-0.08441549	-0.16009314	0.39697257	0.23505245	0.1125461	0.41755197	0.039715758	-0.13776269	0.36397981	0.10995071	-0.053939104	0.79446756	-0.14193814	-0.12646618	0.78724541	0.22868456	0.01020684	0.8796835	-0.065578299	-0.01116315	0.86872732	0.17326611	-0.16909338	0.92619239	0.031895561	-0.031067046	1.3184954	-0.13961431	-0.08338974	1.3480259	0.18998407	-0.12592787	1.3780111	0.015171795	-0.19164903	0.99252082	-0.18652006	-0.19881098	1.0071795	0.2931329	-0.1197656	0.74803777	-0.24359168	-0.040885972	0.78366637	0.31030956
184	0.732	0.22404103	-0.03341919	0.02587474	-0.52398859	0.081255748	0.11522524	0.082204422	-0.0020036884	-0.037179608	-0.55298844	0.23400786	0.13578007	0.087631363	0.018145639	0.060698909	-0.49678912	0.22242985	0.055255641	0.0060234984	-0.038090976	-0.0045889695	-0.58370247	0.2796892	0.071270707	0.13261109	0.41157976	-0.084654361	-0.14608903	0.39572673	0.23496177	0.11911339	0.41590082	0.039454129	-0.12456673	0.36316607	0.10986417	-0.048218089	0.79454863	-0.14204005	-0.1191911	0.78627759	0.22839647	0.017189035	0.88060402	-0.066309957	-0.0046417601	0.86829963	0.17263691	-0.16284599	0.92553729	0.03214962	-0.022638813	1.3181043	-0.13952287	-0.075863213	1.3481186	0.18971511	-0.11837886	1.3779688	0.014771287	-0.18236754	0.99177682	-0.18698893	-0.19272427	1.0077223	0.29197574	-0.11051106	0.74719876	-0.24362715	-0.036710686	0.78315127	0.31037307
185	0.736	0.22398396	-0.033510614	0.025971938	-0.51205428	0.085289603	0.11763148	0.082435494	-0.0023767354	-0.037213978	-0.53981825	0.2383259	0.13597801	0.087704075	0.018001007	0.060721641	-0.48398871	0.2260782	0.05520178	0.0058337664	-0.038070082	-0.0045342375	-0.5703522	0.2839731	0.071176569	0.13673267	0.40992463	-0.08494537	-0.13196131	0.39460702	0.23476381	0.12530988	0.41395626	0.039225457	-0.11160162	0.36275343	0.10963041	-0.042277701	0.79456149	-0.14199777	-0.11189382	0.78543747	0.22810572	0.024146818	0.88147157	-0.066945824	0.0017657926	0.86806199	0.17211519	-0.15613836	0.92517366	0.032659597	-0.014282527	1.3178615	-0.13938784	-0.06823111	1.3483341	0.18951447	-0.11086857	1.378071	0.014419182	-0.17305105	0.99110853	-0.1874215	-0.18659251	1.0083845	0.29081512	-0.10113331	0.74646487	-0.24359671	-0.032589306	0.78271789	0.31041568
186	0.74	0.22402898	-0.033579272	0.026058482	-0.49936161	0.089327547	0.12028052	0.0827871	-0.0026813676	-0.037144661	-0.52626811	0.24252549	0.1362323	0.087969764	0.017885887	0.060798999	-0.47090363	0.22955466	0.055117578	0.0056844685	-0.03796655	-0.0042540011	-0.55693255	0.28781905	0.071005573	0.14057006	0.4083509	-0.085269711	-0.11771885	0.39360309	0.23444113	0.13111214	0.41184816	0.039067992	-0.098788004	0.36269482	0.10925791	-0.036193753	0.79455203	-0.14194545	-0.10455093	0.7847047	0.22782379	0.031110768	0.8822586	-0.067519811	0.0080861862	0.86802829	0.17172568	-0.14919544	0.92505908	0.032769946	-0.0060192487	1.3177542	-0.13923589	-0.060573602	1.3486675	0.18938409	-0.10339432	1.3783265	0.014112085	-0.16372347	0.99050275	-0.18782143	-0.18052119	1.0091709	0.28974648	-0.09162118	0.74582693	-0.24350516	-0.028496267	0.7823387	0.3104425
187	0.744	0.22414347	-0.033628251	0.02612793	-0.4859774	0.093275243	0.12313462	0.083210623	-0.0029131777	-0.036997732	-0.51238651	0.24651899	0.13653559	0.088359486	0.017770311	0.060932949	-0.45755785	0.23272566	0.055080276	0.0056133381	-0.037806468	-0.0038884344	-0.54334771	0.29126005	0.070838283	0.14421834	0.40680357	-0.085525459	-0.10338942	0.39270746	0.23397739	0.13649974	0.40973743	0.039038097	-0.085909254	0.36286075	0.10868093	-0.029941267	0.79457097	-0.14195602	-0.097159837	0.7840819	0.22755489	0.038059152	0.88297803	-0.068166028	0.01432407	0.86821372	0.17146845	-0.14211379	0.92516548	0.032212427	0.0021543579	1.3177716	-0.13906914	-0.052944376	1.3491009	0.18930742	-0.095958406	1.3787231	0.013831865	-0.15441143	0.98994624	-0.18820588	-0.1745915	1.0100762	0.2888326	-0.081969893	0.74528876	-0.24335288	-0.024438293	0.78200594	0.31045594
188	0.748	0.22426572	-0.033662572	0.02617312	-0.47198736	0.097071698	0.12607171	0.083631235	-0.0030861942	-0.03683572	-0.49825403	0.25021907	0.13691546	0.088763964	0.01763657	0.061106031	-0.44399377	0.23554275	0.055158224	0.0056158798	-0.037628383	-0.003580968	-0.52956538	0.29435978	0.070782562	0.14768251	0.40529382	-0.085602736	-0.088981977	0.39191512	0.23334929	0.14138205	0.4078214	0.039160305	-0.072739213	0.36316472	0.10782414	-0.023436675	0.79465941	-0.14204569	-0.08973043	0.7835901	0.22729573	0.044873886	0.88364043	-0.069009278	0.020466424	0.86863424	0.17131491	-0.13490911	0.92543481	0.03120643	0.010244168	1.3179181	-0.13888121	-0.045375371	1.3496288	0.18927049	-0.08855995	1.3792382	0.013553961	-0.14514273	0.9894341	-0.18859569	-0.1688242	1.0110804	0.28812673	-0.072183339	0.74486945	-0.24313484	-0.020423309	0.78173466	0.31045919
189	0.752	0.22434655	-0.033687961	0.026203034	-0.4574905	0.10067231	0.12893377	0.083990869	-0.0032204112	-0.03671086	-0.48395869	0.25354995	0.13738239	0.089095576	0.017499578	0.061289494	-0.43025242	0.23804631	0.055368164	0.005646864	-0.037460935	-0.003388163	-0.51563357	0.2971629	0.070941032	0.15093005	0.40391329	-0.085439066	-0.074453164	0.39124133	0.23253011	0.14552244	0.40626466	0.039367728	-0.059165783	0.36362206	0.10670794	-0.016624874	0.79481631	-0.14218634	-0.082278657	0.78325964	0.22704046	0.051450251	0.88421954	-0.069895795	0.026507426	0.8692973	0.17122194	-0.12779916	0.92582361	0.03014397	0.018246821	1.3182067	-0.13866952	-0.037899495	1.350263	0.18926576	-0.081194042	1.3798567	0.013264382	-0.13593058	0.98898252	-0.18898358	-0.16315218	1.01216	0.2876732	-0.0622635	0.74459299	-0.2428445	-0.016435134	0.7815499	0.31045673
